<?xml version="1.0" encoding="UTF-8" standalone="no"?>
<svg
   width="2100"
   height="2100"
   viewBox="0 0 1615.3846 1615.3845"
   version="1.1"
   id="svg1"
   sodipodi:docname="nullsix-inkscape.svg"
   inkscape:version="1.4 (e7c3feb1, 2024-10-09)"
   inkscape:export-filename="nullsix-inkscape-7-500-x-500.png"
   inkscape:export-xdpi="22.860001"
   inkscape:export-ydpi="22.860001"
   xmlns:inkscape="http://www.inkscape.org/namespaces/inkscape"
   xmlns:sodipodi="http://sodipodi.sourceforge.net/DTD/sodipodi-0.dtd"
   xmlns="http://www.w3.org/2000/svg"
   xmlns:svg="http://www.w3.org/2000/svg">
  <defs
     id="defs1">
    <linearGradient
       id="linearGradient1"
       inkscape:swatch="gradient">
      <stop
         style="stop-color:#000000;stop-opacity:1;"
         offset="0"
         id="stop1" />
      <stop
         style="stop-color:#000000;stop-opacity:0;"
         offset="1"
         id="stop2" />
    </linearGradient>
  </defs>
  <sodipodi:namedview
     id="namedview1"
     pagecolor="#ffffff"
     bordercolor="#000000"
     borderopacity="0.25"
     inkscape:showpageshadow="2"
     inkscape:pageopacity="0.0"
     inkscape:pagecheckerboard="0"
     inkscape:deskcolor="#d1d1d1"
     inkscape:document-units="px"
     inkscape:zoom="0.5"
     inkscape:cx="999"
     inkscape:cy="1014"
     inkscape:window-width="3008"
     inkscape:window-height="1639"
     inkscape:window-x="0"
     inkscape:window-y="25"
     inkscape:window-maximized="1"
     inkscape:current-layer="svg1" />
  <g
     id="g10">
    <path
       id="nullsix outline outer"
       fill="none"
       stroke="black"
       stroke-width="1"
       d="m 908.17063,21.270772 c 10.53,7.09 92.61997,60.37 105.17997,68.18 -7.68,10.939998 -355.67997,538.189998 -345.92997,527.689998 13.5,-4.5 14.25,-5.62 29.62,-9.37 33.75,-5.63 145.13,-33.75 246.11,17.55 0,0 104.73997,-156.19 104.73997,-156.19 0,0 103.26,67.15 103.26,67.15 0,0 -102.5,157.58 -102.5,157.58 168.52,166.66 126.89,415.28003 49.72,513.78003 -77.16,98.5 -138.82997,135.88 -268.47997,165.04 -94.97,16.96 -190.6,-8.91 -216.46,-23.95 0,0 -110.46,168.46 -110.46,168.46 0,0 -104.65,-73.52 -104.65,-73.52 0,0 87.97,-133.9 104.47,-159.97 -9,-7.68 -99,-104.43 -119.84,-189.77 -20.85,-85.33 -5.78,-206.41003 11.84,-258.91003 19.54,-55.88 65.25,-147 123.75,-230.25 155.56,-233.74 379.88,-569.999998 389.63,-583.499998 z"
       style="display:none;fill:none;fill-opacity:1;stroke:#000000;stroke-width:3;stroke-linecap:square;stroke-linejoin:round;stroke-dasharray:none;stroke-opacity:1;paint-order:normal" />
    <path
       id="nullsix outline inner left"
       fill="none"
       stroke="black"
       stroke-width="1"
       d="m 577.42063,1172.1408 c 0,0 281.55,-421.70003 292.87,-442.50003 -3.75,-7.87 -68.62,-27.75 -131.25,-20.25 -113.62,7.13 -181.75,93.34 -209.62,135.75 -40.67,64.74 -39.75,156.38003 -24,208.50003 12.75,50.25 58.93,122.45 72,118.5 z"
       style="display:none;mix-blend-mode:normal;fill:none;fill-opacity:1;stroke:#000000;stroke-width:3;stroke-dasharray:none;stroke-opacity:1"
       inkscape:label="nullsix outline inner left" />
    <path
       id="nullsix outline inner right"
       fill="none"
       stroke="black"
       stroke-width="1"
       d="m 974.92063,807.27077 c 0,0 -272.25,406.87003 -283.88,427.50003 -0.37,3.75 13.13,22.5 112.5,15.75 99.38,-6.75 169.13,-88.5 197.62997,-130.5 41.62,-64.13 40.5,-159.38003 34.5,-190.50003 -11.25,-49.5 -47.62997,-126 -60.74997,-122.25 z"
       style="display:none;mix-blend-mode:normal;fill:none;fill-opacity:1;stroke:#000000;stroke-width:3;stroke-dasharray:none;stroke-opacity:1" />
  </g>
  <g
     id="g9"
     transform="matrix(0.95052073,0,0,0.95052073,76.903811,61.137951)">
    <path
       id="path9"
       style="display:inline;fill:#10294d;fill-opacity:1;fill-rule:nonzero;stroke:#000000;stroke-width:76.9231;stroke-linecap:round;stroke-linejoin:round;stroke-dasharray:none;stroke-opacity:1;paint-order:markers stroke fill"
       d="m 908.17007,21.271034 c -9.75,13.5 -234.06891,349.759096 -389.62891,583.499096 -58.5,83.25 -104.21,174.3709 -123.75,230.2509 -17.62,52.5 -32.69044,173.57927 -11.84044,258.90927 20.84,85.34 110.83924,182.0901 119.83924,189.7701 -16.5,26.07 -104.46965,159.97 -104.46965,159.97 l 104.64994,73.5201 110.45973,-168.46 c 25.86,15.04 121.49034,40.9098 216.46034,23.9498 129.65,-29.16 191.31958,-66.5391 268.47958,-165.0391 77.17,-98.5 118.8009,-347.12003 -49.7191,-513.78003 l 102.5,-157.58113 -103.2602,-67.14993 -104.74006,156.1914 c -100.98,-51.3 -212.36028,-23.18108 -246.11028,-17.55108 -15.37,3.75 -16.11989,4.87049 -29.61989,9.37049 -9.75,10.5 338.25003,-516.7508 345.93003,-527.6908 -12.56,-7.81 -94.65033,-61.089086 -105.18033,-68.179086 z M 762.50751,707.78545 c 54.425,-1.11166 104.5012,14.96922 107.78245,21.85547 -11.32,20.8 -292.86959,442.49998 -292.86959,442.49998 -13.07,3.95 -59.2497,-68.2506 -71.9997,-118.5006 -15.75,-52.12 -16.6706,-143.75908 23.9994,-208.49908 27.87,-42.41 95.99989,-128.6212 209.61989,-135.7512 7.82875,-0.9375 15.69255,-1.44576 23.46755,-1.60457 z m 213.70943,99.36599 c 14.07254,1.12461 48.55466,74.41616 59.45316,122.36929 6,31.12 7.1203,126.37027 -34.4997,190.50027 -28.5,42 -98.24924,123.7503 -197.62924,130.5003 -99.37,6.75 -112.87,-12.0012 -112.5,-15.7512 11.63,-20.63 283.87921,-427.49997 283.87921,-427.49997 0.41,-0.11719 0.84262,-0.15497 1.29657,-0.11869 z"
       inkscape:label="nullsix logo w/ black stroke" />
    <path
       id="path1"
       style="display:inline;fill:#10294d;fill-opacity:1;fill-rule:nonzero;stroke:#ffffff;stroke-width:38.4615;stroke-linecap:round;stroke-linejoin:round;stroke-dasharray:none;stroke-opacity:1;paint-order:markers stroke fill"
       d="m 908.17007,21.271034 c -9.75,13.5 -234.06891,349.759096 -389.62891,583.499096 -58.5,83.25 -104.21,174.3709 -123.75,230.2509 -17.62,52.5 -32.69044,173.57927 -11.84044,258.90927 20.84,85.34 110.83924,182.0901 119.83924,189.7701 -16.5,26.07 -104.46965,159.97 -104.46965,159.97 l 104.64994,73.5201 110.45973,-168.46 c 25.86,15.04 121.49034,40.9098 216.46034,23.9498 129.65,-29.16 191.31958,-66.5391 268.47958,-165.0391 77.17,-98.5 118.8009,-347.12003 -49.7191,-513.78003 l 102.5,-157.58113 -103.2602,-67.14993 -104.74006,156.1914 c -100.98,-51.3 -212.36028,-23.18108 -246.11028,-17.55108 -15.37,3.75 -16.11989,4.87049 -29.61989,9.37049 -9.75,10.5 338.25003,-516.7508 345.93003,-527.6908 -12.56,-7.81 -94.65033,-61.089086 -105.18033,-68.179086 z M 762.50751,707.78545 c 54.425,-1.11166 104.5012,14.96922 107.78245,21.85547 -11.32,20.8 -292.86959,442.49998 -292.86959,442.49998 -13.07,3.95 -59.2497,-68.2506 -71.9997,-118.5006 -15.75,-52.12 -16.6706,-143.75908 23.9994,-208.49908 27.87,-42.41 95.99989,-128.6212 209.61989,-135.7512 7.82875,-0.9375 15.69255,-1.44576 23.46755,-1.60457 z m 213.70943,99.36599 c 14.07254,1.12461 48.55466,74.41616 59.45316,122.36929 6,31.12 7.1203,126.37027 -34.4997,190.50027 -28.5,42 -98.24924,123.7503 -197.62924,130.5003 -99.37,6.75 -112.87,-12.0012 -112.5,-15.7512 11.63,-20.63 283.87921,-427.49997 283.87921,-427.49997 0.41,-0.11719 0.84262,-0.15497 1.29657,-0.11869 z"
       inkscape:label="nullsix logo w/ white stroke" />
  </g>
</svg>
